<svg width="44" height="11" viewBox="0 0 44 11" fill="none" xmlns="http://www.w3.org/2000/svg">
<path d="M2.172 10H3.492L4.8 4.696C4.944 4.012 5.1 3.376 5.244 2.692H5.292C5.424 3.376 5.568 4.012 5.724 4.696L7.044 10H8.388L10.212 1.204H9.144L8.208 6.004C8.052 6.94 7.884 7.888 7.716 8.848H7.656C7.44 7.888 7.236 6.94 7.02 6.004L5.796 1.204H4.788L3.576 6.004C3.36 6.94 3.144 7.888 2.94 8.848H2.892C2.712 7.888 2.544 6.94 2.364 6.004L1.44 1.204H0.3L2.172 10ZM14.1712 10.168C15.7672 10.168 17.1832 8.908 17.1832 6.76C17.1832 4.576 15.7672 3.328 14.1712 3.328C12.5632 3.328 11.1472 4.576 11.1472 6.76C11.1472 8.908 12.5632 10.168 14.1712 10.168ZM14.1712 9.256C13.0312 9.256 12.2752 8.248 12.2752 6.76C12.2752 5.248 13.0312 4.24 14.1712 4.24C15.2992 4.24 16.0552 5.248 16.0552 6.76C16.0552 8.248 15.2992 9.256 14.1712 9.256ZM21.1245 10.168C21.9165 10.168 22.6005 9.748 23.1165 9.232H23.1405L23.2365 10H24.1365V0.46H23.0445V2.956L23.0925 4.084C22.5285 3.604 22.0245 3.328 21.2685 3.328C19.7805 3.328 18.4365 4.636 18.4365 6.76C18.4365 8.932 19.4925 10.168 21.1245 10.168ZM21.3645 9.244C20.2245 9.244 19.5765 8.308 19.5765 6.748C19.5765 5.26 20.4045 4.24 21.4485 4.24C21.9885 4.24 22.4925 4.432 23.0445 4.936V8.356C22.5045 8.944 21.9765 9.244 21.3645 9.244ZM28.9859 10.168C29.8739 10.168 30.5579 9.868 31.1339 9.496L30.7379 8.764C30.2579 9.088 29.7419 9.292 29.1179 9.292C27.8699 9.292 27.0299 8.392 26.9459 7.012H31.3379C31.3739 6.844 31.3859 6.616 31.3859 6.388C31.3859 4.516 30.4499 3.328 28.7939 3.328C27.2939 3.328 25.8659 4.636 25.8659 6.76C25.8659 8.896 27.2459 10.168 28.9859 10.168ZM26.9339 6.22C27.0779 4.936 27.8939 4.204 28.8059 4.204C29.8379 4.204 30.4259 4.912 30.4259 6.22H26.9339ZM33.5544 10.168C33.9984 10.168 34.3584 9.82 34.3584 9.328C34.3584 8.824 33.9984 8.488 33.5544 8.488C33.1224 8.488 32.7744 8.824 32.7744 9.328C32.7744 9.82 33.1224 10.168 33.5544 10.168ZM36.4383 10H37.4463V5.14C37.4463 4.372 37.3623 3.316 37.3023 2.536H37.3503L38.0463 4.54L39.7143 9.124H40.4583L42.1263 4.54L42.8223 2.536H42.8823C42.8223 3.316 42.7383 4.372 42.7383 5.14V10H43.7703V1.204H42.4263L40.7583 5.92C40.5543 6.52 40.3623 7.132 40.1463 7.756H40.0983C39.8823 7.132 39.6783 6.52 39.4623 5.92L37.7703 1.204H36.4383V10Z" fill="#FFFEFE"/>
</svg>
