<svg width="300" height="300" viewBox="0 0 300 300" fill="none" xmlns="http://www.w3.org/2000/svg">
<rect width="300" height="300" rx="150" fill="white"/>
<path fill-rule="evenodd" clip-rule="evenodd" d="M157.857 16.7902H143.68V16H158.745L158.687 16.4453C158.371 18.9172 158.94 22.7361 161.711 26.0902C164.474 29.4355 169.465 32.3642 178.076 32.9906C186.872 33.6304 191.899 37.174 194.577 41.4012C197.241 45.6073 197.542 50.4329 197.003 53.6013L196.954 53.8897L196.664 53.9269C194.167 54.247 190.588 55.5577 187.989 58.4326C185.407 61.2881 183.75 65.732 185.149 72.4191C186.085 76.8903 184.347 81.3091 182.424 84.569C181.459 86.2056 180.437 87.5668 179.657 88.5188C179.266 88.9952 178.936 89.3699 178.702 89.6262C178.585 89.7544 178.492 89.8531 178.428 89.9202C178.4 89.9501 178.377 89.9737 178.36 89.9909C174.722 95.9152 169.656 111.458 178.388 126.43C179.53 128.387 180.353 131.161 180.92 134.548C181.489 137.941 181.805 141.979 181.916 146.485C182.138 155.497 181.539 166.411 180.475 177.842C178.347 200.705 174.355 225.668 171.325 241.678L171.264 242H154.772L154.742 241.638C153.425 225.836 150.79 189.865 150.79 172.462C150.79 170.956 151.477 168.752 152.299 166.657C153.011 164.842 153.845 163.06 154.487 161.794H148.42V161.003H155.79L155.485 161.583C154.832 162.823 153.851 164.864 153.034 166.946C152.21 169.046 151.58 171.123 151.58 172.462C151.58 189.696 154.172 225.222 155.499 241.21H170.609C173.629 225.205 177.577 200.447 179.688 177.769C180.751 166.352 181.347 155.472 181.126 146.504C181.016 142.02 180.701 138.022 180.141 134.678C179.58 131.328 178.777 128.664 177.706 126.828C169.111 112.092 173.588 96.8384 177.264 90.2979C176.934 90.3572 176.518 90.4286 176.031 90.5052C174.732 90.7096 172.924 90.9516 170.89 91.1023C166.84 91.4022 161.823 91.3462 158.147 89.8557L158.444 89.1233C161.939 90.5407 166.798 90.6129 170.831 90.3142C172.839 90.1655 174.624 89.9265 175.908 89.7246C176.55 89.6237 177.065 89.5322 177.42 89.466C177.597 89.4329 177.734 89.4061 177.827 89.3877C177.834 89.3862 177.841 89.3848 177.848 89.3834C177.851 89.3806 177.854 89.3778 177.857 89.3749C177.917 89.3118 178.005 89.2174 178.118 89.0938C178.344 88.8465 178.665 88.4823 179.046 88.0179C179.807 87.0884 180.804 85.7607 181.744 84.1674C183.631 80.9678 185.251 76.7634 184.376 72.5809C182.931 65.6764 184.632 60.967 187.403 57.9026C190.055 54.9688 193.65 53.5843 196.269 53.1844C196.718 50.1626 196.368 45.7061 193.91 41.8241C191.386 37.8398 186.604 34.4032 178.018 33.7787C169.247 33.1407 164.034 30.1429 161.102 26.5935C158.336 23.2451 157.636 19.4465 157.857 16.7902Z" fill="black"/>
<path fill-rule="evenodd" clip-rule="evenodd" d="M142.361 16.7902H156.538V16H141.473L141.53 16.4453C141.847 18.9172 141.277 22.7361 138.507 26.0902C135.744 29.4355 130.752 32.3642 122.142 32.9906C113.346 33.6304 108.318 37.174 105.641 41.4012C102.977 45.6073 102.676 50.4329 103.215 53.6013L103.264 53.8897L103.554 53.9269C106.051 54.247 109.63 55.5577 112.229 58.4326C114.811 61.2881 116.468 65.732 115.069 72.4191C114.133 76.8903 115.871 81.3091 117.794 84.569C118.759 86.2056 119.781 87.5668 120.561 88.5188C120.952 88.9952 121.282 89.3699 121.516 89.6262C121.633 89.7544 121.726 89.8531 121.79 89.9202C121.818 89.9501 121.841 89.9737 121.858 89.9909C125.496 95.9152 130.562 111.458 121.83 126.43C120.688 128.387 119.865 131.161 119.298 134.548C118.729 137.941 118.413 141.979 118.302 146.485C118.08 155.497 118.679 166.411 119.743 177.842C121.871 200.705 125.863 225.668 128.893 241.678L128.954 242H145.446L145.476 241.638C146.793 225.836 149.428 189.865 149.428 172.462C149.428 170.956 148.741 168.752 147.919 166.657C147.207 164.842 146.373 163.06 145.731 161.794H149.033V161.003H144.428L144.733 161.583C145.386 162.823 146.367 164.864 147.184 166.946C148.008 169.046 148.638 171.123 148.638 172.462C148.638 189.696 146.046 225.222 144.719 241.21H129.609C126.589 225.205 122.641 200.447 120.53 177.769C119.467 166.352 118.871 155.472 119.092 146.504C119.202 142.02 119.517 138.022 120.077 134.678C120.638 131.328 121.441 128.664 122.512 126.828C131.107 112.092 126.63 96.8384 122.954 90.2979C123.284 90.3572 123.7 90.4286 124.187 90.5052C125.486 90.7096 127.294 90.9516 129.328 91.1023C133.378 91.4022 138.395 91.3462 142.071 89.8557L141.774 89.1233C138.279 90.5407 133.42 90.6129 129.387 90.3142C127.379 90.1655 125.594 89.9265 124.31 89.7246C123.668 89.6237 123.153 89.5322 122.798 89.466C122.621 89.4329 122.483 89.4061 122.391 89.3877C122.384 89.3862 122.376 89.3848 122.37 89.3834C122.367 89.3806 122.364 89.3778 122.361 89.3749C122.301 89.3118 122.213 89.2174 122.1 89.0938C121.874 88.8465 121.553 88.4823 121.172 88.0179C120.411 87.0884 119.414 85.7607 118.474 84.1674C116.587 80.9678 114.967 76.7634 115.842 72.5809C117.287 65.6764 115.586 60.967 112.815 57.9026C110.163 54.9688 106.568 53.5843 103.949 53.1844C103.5 50.1626 103.85 45.7061 106.308 41.8241C108.832 37.8398 113.614 34.4032 122.2 33.7787C130.97 33.1407 136.184 30.1429 139.116 26.5935C141.882 23.2451 142.582 19.4465 142.361 16.7902Z" fill="black"/>
<path fill-rule="evenodd" clip-rule="evenodd" d="M150 191.031L98 28.6434H202L150 191.031ZM150 180.669L102.331 31.8042H197.669L150 180.669Z" fill="#8C2121"/>
</svg>
