<svg width="400" height="300" viewBox="0 0 400 300" fill="none" xmlns="http://www.w3.org/2000/svg">
<rect width="400" height="300" rx="150" fill="white"/>
<path fill-rule="evenodd" clip-rule="evenodd" d="M207.857 37.7902H193.68V37H208.745L208.687 37.4453C208.371 39.9172 208.94 43.7361 211.711 47.0902C214.474 50.4355 219.465 53.3642 228.076 53.9906C236.872 54.6304 241.899 58.174 244.577 62.4012C247.241 66.6073 247.542 71.4329 247.003 74.6013L246.954 74.8897L246.664 74.9269C244.167 75.247 240.588 76.5577 237.989 79.4326C235.407 82.2881 233.75 86.732 235.149 93.4191C236.085 97.8903 234.347 102.309 232.424 105.569C231.459 107.206 230.437 108.567 229.657 109.519C229.266 109.995 228.936 110.37 228.702 110.626C228.585 110.754 228.492 110.853 228.428 110.92C228.4 110.95 228.377 110.974 228.36 110.991C224.722 116.915 219.656 132.458 228.388 147.43C229.53 149.387 230.353 152.161 230.92 155.548C231.489 158.941 231.805 162.979 231.916 167.485C232.138 176.497 231.539 187.411 230.475 198.842C228.347 221.705 224.355 246.668 221.325 262.678L221.264 263H204.772L204.742 262.638C203.425 246.836 200.79 210.865 200.79 193.462C200.79 191.956 201.477 189.752 202.299 187.657C203.011 185.842 203.845 184.06 204.487 182.794H198.42V182.003H205.79L205.485 182.583C204.832 183.823 203.851 185.864 203.034 187.946C202.21 190.046 201.58 192.123 201.58 193.462C201.58 210.696 204.172 246.222 205.499 262.21H220.609C223.629 246.205 227.577 221.447 229.688 198.769C230.751 187.352 231.347 176.472 231.126 167.504C231.016 163.02 230.701 159.022 230.141 155.678C229.58 152.328 228.777 149.664 227.706 147.828C219.111 133.092 223.588 117.838 227.264 111.298C226.934 111.357 226.518 111.429 226.031 111.505C224.732 111.71 222.924 111.952 220.89 112.102C216.84 112.402 211.823 112.346 208.147 110.856L208.444 110.123C211.939 111.541 216.798 111.613 220.831 111.314C222.839 111.166 224.624 110.927 225.908 110.725C226.55 110.624 227.065 110.532 227.42 110.466C227.597 110.433 227.734 110.406 227.827 110.388C227.834 110.386 227.841 110.385 227.848 110.383C227.851 110.381 227.854 110.378 227.857 110.375C227.917 110.312 228.005 110.217 228.118 110.094C228.344 109.846 228.665 109.482 229.046 109.018C229.807 108.088 230.804 106.761 231.744 105.167C233.631 101.968 235.251 97.7634 234.376 93.5809C232.931 86.6764 234.632 81.967 237.403 78.9026C240.055 75.9688 243.65 74.5843 246.269 74.1844C246.718 71.1626 246.368 66.7061 243.91 62.8241C241.386 58.8398 236.604 55.4032 228.018 54.7787C219.247 54.1407 214.034 51.1429 211.102 47.5935C208.336 44.2451 207.636 40.4465 207.857 37.7902Z" fill="black"/>
<path fill-rule="evenodd" clip-rule="evenodd" d="M192.361 37.7902H206.538V37H191.473L191.53 37.4453C191.847 39.9172 191.277 43.7361 188.507 47.0902C185.744 50.4355 180.752 53.3642 172.142 53.9906C163.346 54.6304 158.318 58.174 155.641 62.4012C152.977 66.6073 152.676 71.4329 153.215 74.6013L153.264 74.8897L153.554 74.9269C156.051 75.247 159.63 76.5577 162.229 79.4326C164.811 82.2881 166.468 86.732 165.069 93.4191C164.133 97.8903 165.871 102.309 167.794 105.569C168.759 107.206 169.781 108.567 170.561 109.519C170.952 109.995 171.282 110.37 171.516 110.626C171.633 110.754 171.726 110.853 171.79 110.92C171.818 110.95 171.841 110.974 171.858 110.991C175.496 116.915 180.562 132.458 171.83 147.43C170.688 149.387 169.865 152.161 169.298 155.548C168.729 158.941 168.413 162.979 168.302 167.485C168.08 176.497 168.679 187.411 169.743 198.842C171.871 221.705 175.863 246.668 178.893 262.678L178.954 263H195.446L195.476 262.638C196.793 246.836 199.428 210.865 199.428 193.462C199.428 191.956 198.741 189.752 197.919 187.657C197.207 185.842 196.373 184.06 195.731 182.794H199.033V182.003H194.428L194.733 182.583C195.386 183.823 196.367 185.864 197.184 187.946C198.008 190.046 198.638 192.123 198.638 193.462C198.638 210.696 196.046 246.222 194.719 262.21H179.609C176.589 246.205 172.641 221.447 170.53 198.769C169.467 187.352 168.871 176.472 169.092 167.504C169.202 163.02 169.517 159.022 170.077 155.678C170.638 152.328 171.441 149.664 172.512 147.828C181.107 133.092 176.63 117.838 172.954 111.298C173.284 111.357 173.7 111.429 174.187 111.505C175.486 111.71 177.294 111.952 179.328 112.102C183.378 112.402 188.395 112.346 192.071 110.856L191.774 110.123C188.279 111.541 183.42 111.613 179.387 111.314C177.379 111.166 175.594 110.927 174.31 110.725C173.668 110.624 173.153 110.532 172.798 110.466C172.621 110.433 172.483 110.406 172.391 110.388C172.384 110.386 172.376 110.385 172.37 110.383C172.367 110.381 172.364 110.378 172.361 110.375C172.301 110.312 172.213 110.217 172.1 110.094C171.874 109.846 171.553 109.482 171.172 109.018C170.411 108.088 169.414 106.761 168.474 105.167C166.587 101.968 164.967 97.7634 165.842 93.5809C167.287 86.6764 165.586 81.967 162.815 78.9026C160.163 75.9688 156.568 74.5843 153.949 74.1844C153.5 71.1626 153.85 66.7061 156.308 62.8241C158.832 58.8398 163.614 55.4032 172.2 54.7787C180.97 54.1407 186.184 51.1429 189.116 47.5935C191.882 44.2451 192.582 40.4465 192.361 37.7902Z" fill="black"/>
<path fill-rule="evenodd" clip-rule="evenodd" d="M200 212.031L148 49.6434H252L200 212.031ZM200 201.669L152.331 52.8042H247.669L200 201.669Z" fill="#FF0909"/>
</svg>
